<svg xmlns="http://www.w3.org/2000/svg" width="1298" height="2852" viewBox="0 0 1298 2852">
    <path fill="none" fill-rule="evenodd" stroke="#000" stroke-dasharray="10" d="M819.4 0c2.69 135.99-122.009 219.324-374.096 250C67.174 296.014-35 354.5-3 627.946S326.03 743.221 378.5 1120c52.47 376.779 81.5 12 420.898 238.394 178.759 119.241 218.056-123.897 294.017-91.087 75.962 32.81 51.953 77.863 49.484 82.711-10.167 19.961-46.326 34.623-68.478 20.624-3.8-2.401-24.289-28.342-4.694-62.244 6.8-11.766 44.039-34.265 79.781-26.006 61.503 14.211 176.355 52.253 141.363 166.608-34.992 114.355-532.8 141.715-721.285 68.783-210.743-81.545-472.713 105.576-457.992 263.599 14.721 158.023 132.898 200.212 365.422 242.726 232.524 42.515 270.356 115.377 311.018 205.84 40.663 90.462 29.43 198.79-31.302 322.546-36.93 75.255-23.967 175.09 38.89 299.506" opacity=".222"/>
</svg>
