<svg xmlns="http://www.w3.org/2000/svg" xmlns:xlink="http://www.w3.org/1999/xlink" width="202" height="76" viewBox="0 0 202 76">
    <defs>
        <linearGradient id="fi9ew6efbb" x1="8.698%" x2="96.114%" y1="47.353%" y2="51.973%">
            <stop offset="0%" stop-color="#315ad1"/>
            <stop offset="100%" stop-color="#030d93"/>
        </linearGradient>
        <linearGradient id="197xk2m7tc" x1="14.916%" x2="77.778%" y1="49.42%" y2="50.58%">
            <stop offset="0%" stop-color="#315ad1"/>
            <stop offset="100%" stop-color="#080b8f"/>
        </linearGradient>
        <path id="6nem92yo9a" d="M22.72 46.64c3.627 0 6.816-.533 9.568-1.6 2.752-1.067 4.885-2.613 6.4-4.64 1.515-2.027 2.272-4.427 2.272-7.2 0-2.517-.533-4.587-1.6-6.208-1.067-1.621-2.72-2.965-4.96-4.032-2.24-1.067-5.259-2.027-9.056-2.88-2.773-.725-4.885-1.376-6.336-1.952-1.45-.576-2.517-1.248-3.2-2.016-.683-.768-1.024-1.728-1.024-2.88 0-1.707.672-3.008 2.016-3.904 1.344-.896 3.19-1.344 5.536-1.344 2.133 0 3.925.459 5.376 1.376 1.45.917 2.283 2.059 2.496 3.424.341.768.981 1.152 1.92 1.152h6.08c.384 0 .704-.139.96-.416.256-.277.384-.587.384-.928-.085-1.835-.8-3.68-2.144-5.536-1.344-1.856-3.307-3.403-5.888-4.64C28.939 1.179 25.877.56 22.336.56c-3.37 0-6.325.555-8.864 1.664-2.539 1.11-4.49 2.635-5.856 4.576-1.365 1.941-2.048 4.15-2.048 6.624 0 3.67 1.173 6.485 3.52 8.448s6.037 3.541 11.072 4.736c3.072.81 5.387 1.504 6.944 2.08 1.557.576 2.72 1.248 3.488 2.016.768.768 1.152 1.728 1.152 2.88 0 1.75-.757 3.125-2.272 4.128-1.515 1.003-3.765 1.504-6.752 1.504-2.645 0-4.725-.49-6.24-1.472-1.515-.981-2.485-2.197-2.912-3.648-.256-.384-.533-.683-.832-.896-.299-.213-.683-.32-1.152-.32H5.76c-.384 0-.704.139-.96.416-.256.277-.384.587-.384.928.085 2.219.832 4.267 2.24 6.144 1.408 1.877 3.477 3.392 6.208 4.544 2.73 1.152 6.016 1.728 9.856 1.728zM65.664 46c.47 0 .843-.15 1.12-.448.277-.299.416-.661.416-1.088V9.2h11.776c.47 0 .853-.15 1.152-.448.299-.299.448-.683.448-1.152V2.8c0-.47-.15-.853-.448-1.152-.299-.299-.683-.448-1.152-.448H46.272c-.47 0-.843.15-1.12.448-.277.299-.416.683-.416 1.152v4.8c0 .47.15.853.448 1.152.299.299.661.448 1.088.448h11.84v35.264c0 .427.15.79.448 1.088.299.299.661.448 1.088.448h6.016zm51.648 0c.47 0 .853-.139 1.152-.416.299-.277.448-.65.448-1.12v-4.352c0-.47-.15-.843-.448-1.12-.299-.277-.683-.416-1.152-.416H95.808V26.992h19.584c.47 0 .853-.139 1.152-.416.299-.277.448-.65.448-1.12v-4.032c0-.47-.15-.853-.448-1.152-.299-.299-.683-.448-1.152-.448H95.808v-11.2H116.8c.47 0 .853-.139 1.152-.416.299-.277.448-.65.448-1.12V2.8c0-.47-.15-.853-.448-1.152-.299-.299-.683-.448-1.152-.448H88.576c-.47 0-.843.15-1.12.448-.277.299-.416.683-.416 1.152v41.664c0 .427.15.79.448 1.088.299.299.661.448 1.088.448h28.736zm16.64 0c.47 0 .843-.15 1.12-.448.277-.299.416-.661.416-1.088v-27.52l8.896 16.896c.555.939 1.28 1.408 2.176 1.408h2.688c.939 0 1.643-.47 2.112-1.408l8.896-16.896v27.52c0 .427.15.79.448 1.088.299.299.661.448 1.088.448h5.504c.47 0 .853-.139 1.152-.416.299-.277.448-.65.448-1.12V2.8c0-.47-.15-.853-.448-1.152-.299-.299-.683-.448-1.152-.448h-5.12c-.81 0-1.45.405-1.92 1.216l-12.352 22.912-12.352-22.912c-.47-.81-1.11-1.216-1.92-1.216h-5.184c-.47 0-.843.15-1.12.448-.277.299-.416.683-.416 1.152v41.664c0 .427.15.79.448 1.088.299.299.661.448 1.088.448h5.504z"/>
    </defs>
    <g fill="none" fill-rule="evenodd">
        <g fill-rule="nonzero" transform="translate(3.5)">
            <use fill="#6E2FCE" xlink:href="#6nem92yo9a"/>
            <use fill="url(#fi9ew6efbb)" xlink:href="#6nem92yo9a"/>
        </g>
        <path stroke="url(#197xk2m7tc)" stroke-linecap="round" stroke-width="5" d="M0 69.213c7.971-.069 15.517-.768 22.637-2.098 10.68-1.994 14.728-5.808 25.661-4.615 10.934 1.193-7.432 6.703 0 6.713 4.753.007 13.708-6.6 17.245-6.234 3.538.367-12.452 7.584 0 6.234 12.453-1.349 33.43-13.269 41.198-11.905 7.769 1.363-23.485 11.566-11.314 11.905 6.171.172 19.015-6.391 38.949-10.548 6.278-1.309 19.904-4.691 21.722 1.983 1.818 6.674-17.37 14.402-18.908 11.854-.894-1.481 8.13-8.874 18.24-13.837 7.282-3.574 15.643-5.194 18.83-5.698 3.973-.63 10.886-.952 20.74-.967" transform="translate(3.5)"/>
    </g>
</svg>
