<svg xmlns="http://www.w3.org/2000/svg" width="153" height="32" viewBox="0 0 153 32">
    <g fill="none" fill-rule="evenodd">
        <g fill="#0518B7" fill-rule="nonzero">
            <g>
                <g>
                    <path d="M6.27 21.993c.09.071.105.202.034.292l-.015.017c-.476.482-.81.897-1.003 1.245-.15.272-.645 1.415-.147 1.871.497.456 1.706-.054 1.972-.197.352-.19.663-.425.933-.707l.157-.175c.059-.07.156-.093.24-.057 1.02.433 1.392 1.471 1.114 3.115-.238 1.407-1.861 2.159-3.446 2.54-1.32.317-2.25.317-3.019.556-.651.203-1.311.613-1.98 1.232l-.222.214c-.081.081-.213.08-.294 0-.02-.021-.036-.047-.047-.074-.711-1.902-.729-3.413-.053-4.532.64-1.06 1.305-1.856 1.996-2.388.042-.036.05-.1.016-.144-.018-.023-.045-.037-.074-.039l-2.11-.11c-.115-.006-.203-.104-.197-.219.001-.019.005-.038.011-.056.544-1.596 1.406-2.627 2.585-3.092 1.183-.465 2.366-.23 3.55.708zM30.43 0c.217.01.306.176.264.495-.066.494 0 5.774-2.706 11.48-1.761 3.715-4.08 6.397-6.955 8.046-.103.06-.175.159-.2.273l-.009.087v2.212c0 .439-.139.864-.394 1.217l-.116.146-2.78 3.19c-.02.024-.046.043-.075.055-.088.037-.187.009-.244-.063l-.028-.048-1.501-3.552c-.032-.077-.106-.125-.186-.127l-.06.008-3.462.959c-.11.03-.228.013-.325-.045l-.068-.051-2.566-2.385-2.475-2.548c-.103-.105-.142-.257-.103-.399l.953-3.484c.027-.1-.023-.205-.119-.246l-3.534-1.513c-.106-.045-.154-.167-.11-.273.013-.028.031-.053.054-.074l3.168-2.796c.38-.334.868-.519 1.373-.519h2.184c.15 0 .288-.08.361-.21 1.64-2.896 4.306-5.231 7.999-7.005C22.545 1.017 26.424.074 30.409 0h.02zm105.728 23.038c.074 0 .154.006.24.02l.134.023h.17v.536h-.039l-.006-.078c-.015-.1-.06-.183-.135-.249-.095-.08-.216-.122-.364-.122s-.272.05-.372.149c-.1.098-.15.222-.15.37 0 .119.037.224.111.317l.063.067.857.793.079.086c.093.123.139.277.139.463 0 .232-.074.423-.222.573-.148.15-.345.224-.592.224-.128 0-.263-.02-.407-.058-.144-.04-.255-.1-.333-.181-.009-.04-.013-.12-.013-.236 0-.077.01-.158.029-.242l.036-.128h.04l-.004.048-.001.048c0 .177.054.325.161.442.107.118.25.177.427.177.182 0 .333-.055.45-.166.118-.11.177-.249.177-.416 0-.134-.037-.247-.11-.341l-.06-.067-.836-.775-.085-.091c-.1-.126-.15-.272-.15-.437 0-.206.069-.382.207-.53.137-.146.324-.22.559-.22zm-73.269-.005l2.373 2.537v-2.162l-.012-.071c-.012-.045-.036-.085-.071-.118-.035-.034-.074-.057-.118-.068l-.07-.009h-.082V23.1h.897v.043h-.079l-.069.009c-.044.011-.083.034-.118.068-.035.033-.058.072-.071.116l-.012.069v2.249l.004.165.01.16.017.154.009.078h-.04l-2.372-2.536v2.17l.01.072c.018.066.06.118.125.155.027.016.055.026.085.031l.045.004h.083v.043h-.897v-.043h.083l.07-.009c.043-.01.082-.033.117-.067s.058-.074.07-.119l.009-.071v-2.262l-.004-.17-.01-.16-.017-.145-.009-.07h.044zm48.674.005c.465 0 .842.146 1.132.438.29.292.436.674.436 1.148 0 .474-.146.856-.436 1.148-.29.292-.667.438-1.132.438-.464 0-.84-.146-1.13-.438-.288-.292-.433-.674-.433-1.148 0-.474.144-.856.431-1.146.29-.294.668-.44 1.132-.44zm-23.983.06v.044h-.07l-.06.007c-.038.009-.072.026-.1.052-.03.026-.05.057-.06.093l-.01.057v1.665l.007.154c.023.247.106.451.247.613.17.195.397.292.681.292.285 0 .516-.092.693-.276.147-.154.233-.348.258-.581l.007-.145v-1.722l-.01-.057c-.01-.036-.03-.067-.06-.093-.028-.026-.062-.043-.1-.052l-.06-.007h-.07V23.1h.805v.043h-.07l-.058.007c-.037.009-.07.026-.1.052s-.05.057-.062.091l-.01.055v1.726l-.007.142c-.026.275-.131.502-.315.682-.215.209-.5.313-.858.313-.357 0-.646-.103-.868-.311-.19-.178-.3-.405-.327-.68l-.006-.142V23.36l-.008-.06c-.014-.057-.05-.101-.106-.132l-.055-.02-.062-.006h-.07V23.1h.884zm34.648-.06c.334 0 .634.068.901.205l.157.091.087.615h-.04l-.045-.143c-.072-.182-.185-.327-.34-.435-.193-.135-.433-.203-.72-.203-.369 0-.667.134-.895.401-.228.268-.342.62-.342 1.055 0 .436.114.787.342 1.053.228.265.526.4.895.403.188 0 .368-.034.537-.1.128-.05.243-.115.347-.195l.1-.084v-.772l-.007-.059c-.009-.036-.026-.065-.052-.087-.026-.022-.06-.037-.099-.044l-.064-.006h-.07v-.044h.853v.044h-.065l-.067.006c-.04.007-.073.022-.098.044-.022.02-.037.043-.045.072l-.008.048v.745l-.08.096c-.057.061-.12.118-.19.17-.104.079-.244.148-.42.207-.175.06-.366.09-.572.09-.465-.003-.841-.15-1.13-.44-.289-.291-.433-.673-.433-1.147s.144-.856.433-1.148c.289-.292.665-.438 1.13-.438zm-5.962.06v.044h-.07l-.06.007c-.038.009-.071.026-.1.052-.03.026-.05.057-.06.093l-.01.057v1.665l.007.154c.024.247.106.451.248.613.17.195.397.292.681.292.284 0 .515-.092.692-.276.148-.154.234-.348.258-.581l.008-.145v-1.722l-.01-.057c-.01-.036-.03-.067-.06-.093-.029-.026-.062-.043-.1-.052l-.06-.007h-.07V23.1h.805v.043h-.07l-.058.007c-.037.009-.07.026-.1.052s-.051.057-.063.091l-.01.055v1.726l-.006.142c-.026.275-.132.502-.316.682-.214.209-.5.313-.857.313s-.647-.103-.869-.311c-.19-.178-.299-.405-.326-.68l-.007-.142V23.36l-.007-.06c-.014-.057-.05-.101-.106-.132l-.056-.02-.062-.006h-.07V23.1h.884zm-70.1 0v.044h-.07l-.06.007c-.038.009-.072.026-.1.052-.03.026-.05.057-.06.093l-.01.057v1.665l.007.154c.023.247.106.451.247.613.17.195.397.292.681.292.285 0 .516-.092.693-.276.147-.154.233-.348.258-.581l.007-.145v-1.722l-.01-.057c-.01-.036-.03-.067-.06-.093-.028-.026-.062-.043-.1-.052l-.06-.007h-.07V23.1h.805v.043h-.07l-.058.007c-.037.009-.07.026-.1.052s-.05.057-.062.091l-.01.055v1.726l-.007.142c-.026.275-.131.502-.315.682-.215.209-.5.313-.858.313-.357 0-.646-.103-.868-.311-.19-.178-.3-.405-.327-.68l-.006-.142V23.36l-.008-.06c-.014-.057-.05-.101-.106-.132l-.055-.02-.062-.006h-.07V23.1h.884zm23.46-.06c.333 0 .633.068.9.205l.157.091.087.615h-.039l-.046-.143c-.072-.182-.185-.327-.34-.435-.192-.135-.432-.203-.72-.203-.368 0-.667.134-.894.401-.228.268-.342.62-.342 1.055 0 .436.114.787.342 1.053.227.265.526.4.894.403.189 0 .368-.034.538-.1.127-.05.243-.115.346-.195l.1-.084v-.772l-.006-.059c-.01-.036-.027-.065-.053-.087-.026-.022-.059-.037-.098-.044l-.065-.006h-.07v-.044h.854v.044h-.066l-.066.006c-.041.007-.074.022-.1.044-.02.02-.036.043-.044.072l-.007.048v.745l-.08.096c-.057.061-.12.118-.19.17-.105.079-.245.148-.42.207-.176.06-.367.09-.573.09-.464-.003-.84-.15-1.13-.44-.288-.291-.433-.673-.433-1.147s.145-.856.433-1.148c.29-.292.666-.438 1.13-.438zm13.25 0c.465 0 .842.146 1.133.438.29.292.435.674.435 1.148 0 .474-.145.856-.435 1.148-.29.292-.668.438-1.132.438-.465 0-.841-.146-1.13-.438-.289-.292-.433-.674-.433-1.148 0-.474.143-.856.43-1.146.291-.294.668-.44 1.133-.44zm66.19 0l1.215 2.628 1.189-2.628h.039l.335 2.793.014.066c.026.082.079.141.16.178.03.014.06.023.093.028l.05.003h.07v.043h-.944v-.039h.065l.047-.006c.03-.009.056-.026.08-.053.023-.026.037-.053.042-.083l.001-.045-.196-2.192-.914 2.035-.055.127c-.033.082-.057.156-.074.223l-.02.094h-.043l-1.114-2.418-.187 2.13v.046c.006.03.02.057.043.083.023.027.05.044.078.053l.044.006h.07v.04h-.845v-.044h.07l.077-.008c.05-.011.094-.033.134-.066.04-.033.069-.074.087-.122l.02-.079.326-2.793h.044zm-107.538 0c.334 0 .634.068.902.205l.156.091.087.615h-.04l-.045-.143c-.072-.182-.185-.327-.34-.435-.193-.135-.433-.203-.72-.203-.369 0-.667.134-.895.401-.227.268-.341.62-.341 1.055 0 .436.114.787.341 1.053.228.265.526.4.895.403.189 0 .368-.034.538-.1.127-.05.242-.115.346-.195l.1-.084v-.772l-.007-.059c-.008-.036-.026-.065-.052-.087-.026-.022-.059-.037-.099-.044l-.064-.006h-.07v-.044h.853v.044h-.065l-.067.006c-.04.007-.073.022-.098.044-.022.02-.037.043-.045.072l-.008.048v.745l-.08.096c-.057.061-.12.118-.19.17-.104.079-.244.148-.42.207-.175.06-.366.09-.572.09-.464-.003-.84-.15-1.13-.44-.289-.291-.433-.673-.433-1.147s.144-.856.433-1.148c.29-.292.666-.438 1.13-.438zm13.879.06l.17.007c.387.03.707.169.96.414.288.28.433.649.433 1.105 0 .456-.145.825-.433 1.105-.253.245-.573.383-.96.414l-.17.006H53.93v-.043h.057l.071-.01c.046-.011.087-.035.122-.07.036-.037.06-.077.074-.123l.011-.072v-2.44l-.01-.066c-.012-.042-.037-.079-.075-.11-.037-.033-.079-.054-.124-.065l-.07-.008h-.052l-.004-.043h1.476zm71.463 0v.044h-.057l-.071.009c-.046.012-.087.035-.122.07-.036.035-.06.075-.074.12l-.011.071v1.164h1.78v-1.164l-.01-.073c-.018-.069-.061-.123-.129-.162-.029-.015-.06-.026-.09-.03l-.05-.005h-.056V23.1h.954v.043h-.057l-.072.01c-.045.011-.086.035-.122.07-.036.037-.06.077-.073.123l-.012.072v2.414l.012.072c.013.046.037.086.073.122.036.036.077.06.122.072l.072.009h.057v.043h-.954v-.043h.057l.072-.009c.045-.011.086-.035.121-.07.036-.034.06-.074.074-.12l.011-.071v-1.13h-1.78v1.125l.009.072c.012.046.037.086.074.122.036.036.078.06.123.072l.072.009h.057v.043h-.953v-.043h.056l.072-.01c.046-.011.086-.035.122-.07.036-.037.06-.077.073-.123l.012-.072v-2.419l-.012-.071c-.013-.045-.037-.085-.073-.12-.036-.035-.076-.058-.122-.07l-.072-.009h-.056V23.1h.953zm14.84-.082v.549l-.043-.004v-.074l-.008-.067c-.011-.042-.033-.08-.066-.114s-.07-.057-.11-.07l-.064-.01h-.828v2.61l.012.071c.013.046.038.086.073.12.036.035.077.059.122.07l.072.009h.057v.043h-.954v-.043h.057l.072-.009c.045-.011.086-.035.122-.07.035-.034.06-.074.073-.118l.012-.069v-2.615h-.828l-.066.011c-.041.013-.078.036-.11.07-.032.034-.053.072-.064.114l-.008.067v.074l-.043.004v-.55l.038.014c.045.013.108.026.188.04.072.01.14.019.203.022l.093.003h1.472l.134-.003c.084-.005.157-.015.22-.03.095-.021.152-.036.172-.045zm-40.863.083v.043h-.057l-.072.009c-.045.012-.086.035-.122.07-.036.035-.06.075-.073.12l-.012.071v1.164h1.78v-1.164l-.01-.073c-.018-.069-.061-.123-.128-.162-.03-.015-.06-.026-.091-.03l-.049-.005h-.056V23.1h.953v.043h-.057l-.071.01c-.046.011-.086.035-.122.07-.036.037-.06.077-.074.123l-.011.072v2.414l.011.072c.013.046.038.086.074.122.036.036.076.06.122.072l.071.009h.057v.043h-.953v-.043h.056l.072-.009c.046-.011.086-.035.122-.07.036-.034.06-.074.074-.12l.01-.071v-1.13h-1.78v1.125l.01.072c.012.046.036.086.073.122.037.036.078.06.124.072l.072.009h.057v.043h-.954v-.043h.057l.072-.01c.045-.011.086-.035.121-.07.036-.037.06-.077.074-.123l.011-.072v-2.419l-.011-.071c-.013-.045-.038-.085-.074-.12-.035-.035-.076-.058-.121-.07l-.072-.009h-.057V23.1h.954zm-40.65 0v.043h-.057l-.071.009c-.046.012-.086.035-.122.07-.036.035-.06.075-.074.12l-.011.071v2.42l.009.071c.012.046.037.086.074.122.036.036.078.06.123.072l.072.009h.057v.043h-.953v-.043h.056l.072-.01c.046-.011.086-.035.122-.07.036-.037.06-.077.074-.123l.01-.072v-2.419l-.01-.071c-.014-.045-.038-.085-.074-.12-.036-.035-.076-.058-.122-.07l-.072-.009h-.056V23.1h.953zm17.232 0v.043h-.057l-.045.006c-.042.01-.076.038-.103.081-.017.032-.026.064-.026.094l.006.045.016.044.653 1.22.697-1.224.016-.043.005-.044c0-.03-.01-.06-.03-.092-.026-.043-.06-.07-.103-.081l-.045-.006h-.052V23.1h.966v.043h-.06l-.086.008c-.056.01-.11.032-.16.064-.052.032-.098.07-.138.113l-.056.068-.858 1.395v1.041l.009.072c.012.046.036.086.071.122.036.036.078.06.124.072l.075.009h.052v.043h-.95v-.043h.057l.072-.009c.046-.011.086-.035.122-.07.036-.034.06-.074.074-.12l.01-.071v-1.05l-.83-1.39-.05-.067c-.037-.042-.082-.08-.136-.113-.053-.033-.108-.055-.164-.065l-.086-.009h-.06V23.1h1.07zm68.388-.079v.55h-.043v-.08l-.008-.065c-.01-.042-.032-.08-.064-.113s-.068-.055-.108-.068l-.064-.01h-.888v1.347h.736l.055-.01c.035-.01.066-.029.093-.056.027-.027.045-.059.054-.095l.007-.057v-.061h.043v.688h-.043v-.065l-.007-.055c-.009-.035-.026-.066-.052-.093-.026-.027-.057-.046-.091-.057l-.055-.009h-.74v1.303h.622l.123-.005c.156-.016.279-.062.37-.138.084-.072.159-.17.222-.295l.06-.133h.044l-.253.706h-1.806v-.043h.056l.072-.01c.046-.011.086-.035.122-.07.036-.037.06-.077.074-.123l.01-.072v-2.44l-.015-.066c-.016-.042-.04-.079-.076-.11-.034-.033-.074-.054-.118-.065l-.069-.008h-.052l-.004-.043h1.275l.093-.003c.063-.004.13-.012.201-.023.106-.018.18-.035.224-.053zm-39.323.079l.128.006c.204.02.37.092.495.214.15.147.226.337.226.57 0 .235-.072.437-.215.607-.144.17-.319.254-.525.254.044.02.095.06.155.12s.112.122.159.186c.25.357.412.577.487.66.076.083.13.14.161.17.032.03.067.06.105.09.038.028.075.051.113.069.056.027.115.045.176.054l.094.007v.043h-.24l-.121-.007c-.08-.01-.155-.03-.227-.06-.107-.045-.188-.092-.241-.14-.054-.047-.1-.094-.14-.139-.039-.045-.147-.195-.324-.451-.177-.256-.28-.402-.31-.438-.028-.036-.059-.072-.09-.107-.07-.074-.14-.12-.21-.139l-.07-.009v-.044l.041.004h.051c.038 0 .084 0 .14-.004.36-.008.586-.16.679-.453l.02-.084.006-.08v-.097l-.01-.113c-.018-.143-.066-.263-.143-.358-.095-.12-.224-.183-.387-.192l-.163-.004h-.377v2.597l.01.072c.011.046.035.086.07.122.036.036.078.06.125.072l.074.009h.052l.004.043h-.953v-.043h.057l.071-.009c.046-.011.087-.035.122-.07.036-.034.06-.074.074-.12l.011-.071v-2.42l-.011-.071c-.013-.046-.038-.086-.074-.122-.035-.036-.076-.06-.122-.072l-.071-.009h-.057V23.1h1.175zm-8.831-.083v.549l-.044-.004v-.074l-.008-.067c-.011-.042-.033-.08-.066-.114s-.07-.057-.11-.07l-.064-.01h-.827v2.61l.011.071c.013.046.038.086.074.12.036.035.076.059.122.07l.071.009h.057v.043h-.953v-.043h.056l.072-.009c.046-.011.086-.035.122-.07.036-.034.06-.074.074-.118l.01-.069v-2.615h-.826l-.066.011c-.042.013-.079.036-.11.07-.033.034-.054.072-.064.114l-.008.067v.074l-.044.004v-.55l.039.014c.044.013.107.026.187.04.072.01.14.019.204.022l.092.003h1.472l.134-.003c.084-.005.158-.015.22-.03.095-.021.152-.036.173-.045zm-46.137.083v.043h-.056l-.072.009c-.045.012-.086.035-.122.07-.036.035-.06.075-.073.12l-.012.071v2.42l.01.071c.012.046.036.086.073.122.037.036.078.06.124.072l.072.009h.056v.043h-.953v-.043h.057l.071-.01c.046-.011.087-.035.122-.07.036-.037.06-.077.074-.123l.011-.072v-2.419l-.011-.071c-.013-.045-.038-.085-.074-.12-.035-.035-.076-.058-.122-.07l-.071-.009h-.057V23.1h.953zm60.037.07c-.368 0-.665.133-.89.4-.225.268-.337.62-.337 1.055 0 .436.111.787.335 1.055.226.267.524.4.894.4s.668-.133.893-.4c.225-.268.337-.62.337-1.055 0-.288-.05-.542-.152-.763-.102-.22-.246-.391-.433-.512-.187-.12-.403-.18-.647-.18zm-28.686 0c-.369 0-.666.133-.89.4-.226.268-.338.62-.338 1.055 0 .436.112.787.335 1.055.227.267.525.4.895.4s.667-.133.892-.4c.225-.268.338-.62.338-1.055 0-.288-.051-.542-.153-.763-.101-.22-.246-.391-.433-.512-.187-.12-.403-.18-.646-.18zm-27.47.06h-.858v2.79h.858c.244 0 .46-.058.646-.175.187-.116.333-.28.436-.49.103-.21.154-.454.154-.73 0-.418-.114-.755-.342-1.011-.227-.256-.526-.384-.894-.384zm-9.96-21.984c.884 0 1.755.11 2.611.332.75.194 1.41.462 1.98.804l.239.15-.85 2.097-.32-.18c-.538-.286-1.095-.51-1.67-.67-.692-.195-1.362-.291-2.011-.291-1.065 0-1.856.18-2.374.54-.518.359-.777.836-.777 1.431 0 .415.148.754.445 1.017.297.263.674.47 1.13.623.456.152 1.078.325 1.866.519 1.078.249 1.962.508 2.653.778.691.27 1.282.681 1.773 1.235.49.553.736 1.3.736 2.241 0 .803-.218 1.529-.653 2.18-.436.65-1.096 1.168-1.98 1.556-.885.387-1.963.58-3.234.58-1.12 0-2.2-.158-3.244-.477-.485-.147-.923-.318-1.314-.51-.36-.178-.68-.375-.961-.59l-.203-.166.933-2.096c.075.06.152.118.231.174.55.392 1.201.718 1.956.978.864.298 1.731.446 2.602.446 1.078 0 1.883-.173 2.415-.518.532-.346.798-.803.798-1.37 0-.415-.148-.758-.445-1.027-.298-.27-.674-.481-1.13-.633-.456-.153-1.078-.326-1.866-.52-1.106-.262-2-.525-2.685-.788-.684-.263-1.271-.674-1.762-1.235-.49-.56-.736-1.318-.736-2.272 0-.803.218-1.533.653-2.19.436-.657 1.092-1.18 1.97-1.567.877-.387 1.952-.58 3.223-.58zm106.71.415l-6.018 6.654L153 16.188h-3.92l-5.705-6.797V7.484l5.403-5.824h3.38zm-89.479 0v2.503h-4.153v12.025h-2.753V4.163h-3.94V1.66h10.846zm11.087 0v2.546h-7.007v3.226h6.835V9.92h-6.835v3.747h7.007v2.52h-9.702V1.66h9.702zm20.46.247h6.889c1.079.011 1.851.097 2.662.74.985.782 1.227 1.594 1.227 2.754 0 2.496-2.164 3.074-2.722 3.316.722.26 2.932.479 2.932 3.506 0 2.945-2.678 3.912-4.359 3.962l-.137.002h-6.491V1.907zm35.761-.247c1.354 0 2.574.313 3.662.939 1.087.625 1.941 1.49 2.56 2.592.62 1.103.93 2.348.93 3.733 0 1.386-.31 2.63-.93 3.733-.619 1.103-1.473 1.967-2.56 2.593-1.088.625-2.308.938-3.662.938-1.353 0-2.573-.313-3.661-.938-1.088-.626-1.942-1.494-2.561-2.603-.62-1.11-.93-2.35-.93-3.723 0-1.372.31-2.613.93-3.723.62-1.11 1.473-1.977 2.56-2.602 1.089-.626 2.309-.939 3.662-.939zm-16.17 0c1.354 0 2.574.313 3.662.939 1.087.625 1.941 1.49 2.56 2.592.62 1.103.93 2.348.93 3.733 0 1.386-.31 2.63-.93 3.733-.619 1.103-1.473 1.967-2.56 2.593-1.088.625-2.308.938-3.662.938-1.353 0-2.573-.313-3.661-.938-1.088-.626-1.942-1.494-2.561-2.603-.62-1.11-.93-2.35-.93-3.723 0-1.372.31-2.613.93-3.723.62-1.11 1.473-1.977 2.56-2.602 1.089-.626 2.309-.939 3.662-.939zm28.298 0v14.528h-2.903V1.66h2.903zm-63.001.081l4.765 10.483 4.644-10.483h2.7v14.24h-2.7V6.474L84.98 15.98h-2.376l-3.69-9.505v9.505h-2.656V1.741h2.855zm-62.095 9.987c-1.145 0-2.073.929-2.073 2.075 0 1.146.928 2.075 2.073 2.075s2.073-.929 2.073-2.075c0-1.146-.928-2.075-2.073-2.075zm82.45-7.39c-.323 0-1.018.016-2.085.046l-.253.007v2.533h-.002v6.98h3.015c1.445 0 2.168-.656 2.168-1.97 0-1.258-.661-1.914-1.984-1.969l-.184-.003h-1.15V8.164l.476.001c.601 0 2.681-.595 2.835-2.187l.008-.188c0-1.734-2.32-1.452-2.843-1.452zm30.56-.187c-.846 0-1.607.208-2.283.624-.677.417-1.208.998-1.595 1.745-.386.747-.58 1.583-.58 2.508s.194 1.761.58 2.508c.387.746.918 1.328 1.595 1.744.676.417 1.437.625 2.283.625.845 0 1.606-.208 2.283-.625.676-.416 1.208-.998 1.594-1.744.387-.747.58-1.583.58-2.508s-.193-1.761-.58-2.508c-.386-.747-.918-1.328-1.594-1.745-.677-.416-1.438-.624-2.283-.624zm-16.17 0c-.846 0-1.607.208-2.283.624-.677.417-1.208.998-1.595 1.745-.386.747-.58 1.583-.58 2.508s.194 1.761.58 2.508c.387.746.918 1.328 1.595 1.744.676.417 1.437.625 2.283.625.845 0 1.606-.208 2.283-.625.676-.416 1.208-.998 1.594-1.744.387-.747.58-1.583.58-2.508s-.193-1.761-.58-2.508c-.386-.747-.918-1.328-1.594-1.745-.677-.416-1.438-.624-2.283-.624zm-92.28 2.18c-1.545 0-2.798 1.255-2.798 2.802 0 1.548 1.253 2.802 2.798 2.802 1.546 0 2.799-1.254 2.799-2.802 0-1.547-1.253-2.801-2.799-2.801z" transform="translate(-167 -24) translate(167 24)"/>
                </g>
            </g>
        </g>
    </g>
</svg>
